M48
INCH,TZ
T1C0.0157
T2C0.0295
T3C0.0315
T4C0.0315
T5C0.0394
T6C0.0433
T7C0.0472
%
G90
G05
T1
X9000Y-24300
X10000Y-24900
X11000Y-24600
X11000Y-26400
X12000Y-26100
X12000Y-26700
X13000Y-25800
X13000Y-27000
X14000Y-25200
X14000Y-27300
X15000Y-27600
X16000Y-25500
X16000Y-27900
X17000Y-28200
X17900Y-29600
X18000Y-20500
X18000Y-28500
X19000Y-20200
X19500Y-18400
X20000Y-19900
X20500Y-18700
X21000Y-19600
X21500Y-19000
X22000Y-19300
X32000Y-18400
X33000Y-18700
X33000Y-28500
X34000Y-19000
X34000Y-28200
X35000Y-19300
X35000Y-27900
X36000Y-19600
X36000Y-27600
X37000Y-19900
X37000Y-27300
X38000Y-20200
X38000Y-27000
X39000Y-20500
X39000Y-26700
X40000Y-24000
X40000Y-26400
X41000Y-24300
X41000Y-26100
X42000Y-24600
X42000Y-25800
X43000Y-24900
X43000Y-25500
X44000Y-25200
X45000Y-24000
X45500Y-24300
X46000Y-24900
X46500Y-24600
X47000Y-24300
X48000Y-24900
X48200Y-29600
X49000Y-24600
X49000Y-26400
X50000Y-26100
X50000Y-26700
X51000Y-25800
X51000Y-27000
X52000Y-25200
X52000Y-27300
X53000Y-27600
X53200Y-29900
X54000Y-25500
X54000Y-27900
X55000Y-28200
X55500Y-29600
X56000Y-20500
X56000Y-28500
X57000Y-20200
X57500Y-18400
X58000Y-19900
X58500Y-18700
X59000Y-19600
X59500Y-19000
X60000Y-19300
T2
X36000Y-13500
X36500Y-13000
X36500Y-14000
T3
X32500Y-16016
X32500Y-17000
X52000Y-21500
X55000Y-21500
X9000Y-21500
X9984Y-21500
X24000Y-21500
X27000Y-21500
X17500Y-36500
X17500Y-39500
X23500Y-36500
X23500Y-39500
X32000Y-31500
X32000Y-32484
X27000Y-30500
X30000Y-30500
X34000Y-31500
X34000Y-32484
X32500Y-13016
X32500Y-14000
X25000Y-23000
X25000Y-29000
X26000Y-23000
X26000Y-29000
X27000Y-23000
X27000Y-29000
X28000Y-23000
X28000Y-29000
X29000Y-23000
X29000Y-29000
X30000Y-23000
X30000Y-29000
X31000Y-23000
X31000Y-29000
X32000Y-23000
X32000Y-29000
X33000Y-23000
X33000Y-29000
X34000Y-23000
X34000Y-29000
X35000Y-23000
X35000Y-29000
X36000Y-23000
X36000Y-29000
X37000Y-23000
X37000Y-29000
X38000Y-23000
X38000Y-29000
X39000Y-23000
X39000Y-29000
X40000Y-23000
X40000Y-29000
X41000Y-23000
X41000Y-29000
X42000Y-23000
X42000Y-29000
X43000Y-23000
X43000Y-29000
X44000Y-23000
X44000Y-29000
X35500Y-31000
X35500Y-35000
X36500Y-31000
X36500Y-35000
X37500Y-31000
X37500Y-35000
X38500Y-31000
X38500Y-35000
X39500Y-31000
X39500Y-35000
X40500Y-31000
X40500Y-35000
X41500Y-31000
X41500Y-35000
X42500Y-31000
X42500Y-35000
X43500Y-31000
X43500Y-35000
X44500Y-31000
X44500Y-35000
X45500Y-31000
X45500Y-35000
X46500Y-31000
X46500Y-35000
X9000Y-23000
X9000Y-29000
X10000Y-23000
X10000Y-29000
X11000Y-23000
X11000Y-29000
X12000Y-23000
X12000Y-29000
X13000Y-23000
X13000Y-29000
X14000Y-23000
X14000Y-29000
X15000Y-23000
X15000Y-29000
X16000Y-23000
X16000Y-29000
X17000Y-23000
X17000Y-29000
X18000Y-23000
X18000Y-29000
X19000Y-23000
X19000Y-29000
X20000Y-23000
X20000Y-29000
X21000Y-23000
X21000Y-29000
X22000Y-23000
X22000Y-29000
X50000Y-31500
X50000Y-34500
X14000Y-21500
X17000Y-21500
X48500Y-31500
X48500Y-34500
X28000Y-21500
X31000Y-21500
X34500Y-16016
X34500Y-17000
X23000Y-30500
X26000Y-30500
X38500Y-12500
X41500Y-12500
X47000Y-21500
X47984Y-21500
X34500Y-13000
X34500Y-13984
X25000Y-32000
X28000Y-32000
X47000Y-23000
X47000Y-29000
X48000Y-23000
X48000Y-29000
X49000Y-23000
X49000Y-29000
X50000Y-23000
X50000Y-29000
X51000Y-23000
X51000Y-29000
X52000Y-23000
X52000Y-29000
X53000Y-23000
X53000Y-29000
X54000Y-23000
X54000Y-29000
X55000Y-23000
X55000Y-29000
X56000Y-23000
X56000Y-29000
X57000Y-23000
X57000Y-29000
X58000Y-23000
X58000Y-29000
X59000Y-23000
X59000Y-29000
X60000Y-23000
X60000Y-29000
T4
X22500Y-47000
X13500Y-61000
X41500Y-58000
X60500Y-55000
X19500Y-57000
X47500Y-48000
X20500Y-43000
X54500Y-56000
X18500Y-50000
X51500Y-54000
X61500Y-43000
X57500Y-43000
X17500Y-56000
X16500Y-61000
X53500Y-57000
X43500Y-49000
X27500Y-56000
X13500Y-49000
X63500Y-56000
X14500Y-61000
X43500Y-62000
X51500Y-44000
X40500Y-43000
X19500Y-58000
X10500Y-50000
X17500Y-50000
X53500Y-50000
X37500Y-61000
X58500Y-44000
X47500Y-57000
X50500Y-57000
X62500Y-44000
X16500Y-44000
X28500Y-58000
X26500Y-49000
X18500Y-57000
X18500Y-43000
X19500Y-49000
X48500Y-50000
X39500Y-47000
X15500Y-49000
X60500Y-56000
X38500Y-56000
X7500Y-48000
X17500Y-58000
X36500Y-58000
X55500Y-49000
X26500Y-48000
X13500Y-44000
X24500Y-62000
X11500Y-48000
X7500Y-49000
X32500Y-43000
X6500Y-56000
X33500Y-54000
X33500Y-43000
X21500Y-57000
X45500Y-43000
X10500Y-61000
X9500Y-61000
X31500Y-56000
X35500Y-55000
X16500Y-43000
X13500Y-55000
X34500Y-44000
X18500Y-47000
X32500Y-56000
X36500Y-50000
X49500Y-48000
X16500Y-55000
X25500Y-49000
X37500Y-49000
X16500Y-57000
X59500Y-57000
X18500Y-56000
X22500Y-57000
X50500Y-54000
X39500Y-56000
X44500Y-62000
X55500Y-58000
X9500Y-43000
X13500Y-50000
X51500Y-43000
X36500Y-54000
X64500Y-55000
X48500Y-56000
X8500Y-61000
X38500Y-62000
X64500Y-49000
X16500Y-62000
X44500Y-55000
X12500Y-54000
X23500Y-55000
X16500Y-58000
X32500Y-57000
X58500Y-50000
X20500Y-44000
X28500Y-54000
X14500Y-50000
X28500Y-48000
X22500Y-43000
X27500Y-47000
X56500Y-43000
X7500Y-43000
X39500Y-55000
X32500Y-58000
X36500Y-61000
X22500Y-55000
X27500Y-48000
X54500Y-50000
X25500Y-61000
X49500Y-54000
X52500Y-55000
X56500Y-48000
X17500Y-49000
X18500Y-55000
X23500Y-54000
X56500Y-58000
X54500Y-51000
X24500Y-48000
X52500Y-54000
X14500Y-57000
X58500Y-56000
X63500Y-55000
X9500Y-54000
X13500Y-57000
X58500Y-48000
X7500Y-58000
X11500Y-56000
X35500Y-51000
X25500Y-48000
X60500Y-48000
X60500Y-54000
X21500Y-61000
X46500Y-58000
X11500Y-49000
X24500Y-58000
X43500Y-51000
X32500Y-47000
X48500Y-61000
X23500Y-49000
X38500Y-48000
X46500Y-61000
X45500Y-57000
X37500Y-55000
X54500Y-57000
X17500Y-54000
X20500Y-56000
X30500Y-62000
X6500Y-61000
X10500Y-44000
X35500Y-47000
X45500Y-48000
X25500Y-58000
X39500Y-61000
X42500Y-57000
X29500Y-57000
X64500Y-57000
X40500Y-51000
X18500Y-58000
X15500Y-55000
X54500Y-58000
X39500Y-48000
X43500Y-50000
X21500Y-44000
X56500Y-56000
X43500Y-61000
X34500Y-61000
X42500Y-58000
X45500Y-51000
X15500Y-48000
X60500Y-61000
X59500Y-55000
X59500Y-48000
X40500Y-55000
X14500Y-58000
X31500Y-48000
X13500Y-47000
X47500Y-47000
X46500Y-43000
X19500Y-56000
X56500Y-47000
X15500Y-58000
X36500Y-44000
X53500Y-49000
X21500Y-51000
X16500Y-48000
X36500Y-55000
X45500Y-54000
X63500Y-57000
X46500Y-51000
X10500Y-56000
X12500Y-48000
X49500Y-47000
X30500Y-51000
X21500Y-55000
X38500Y-50000
X32500Y-48000
X10500Y-47000
X29500Y-58000
X55500Y-51000
X37500Y-50000
X39500Y-57000
X49500Y-49000
X51500Y-56000
X61500Y-54000
X26500Y-61000
X40500Y-62000
X26500Y-51000
X58500Y-58000
X52500Y-48000
X15500Y-47000
X44500Y-58000
X15500Y-51000
X62500Y-54000
X34500Y-49000
X64500Y-48000
X27500Y-44000
X33500Y-55000
X41500Y-56000
X64500Y-54000
X33500Y-50000
X31500Y-49000
X18500Y-62000
X37500Y-56000
X23500Y-56000
X20500Y-48000
X57500Y-51000
X33500Y-48000
X57500Y-47000
X49500Y-62000
X49500Y-55000
X53500Y-55000
X43500Y-54000
X52500Y-61000
X37500Y-51000
X32500Y-50000
X19500Y-50000
X52500Y-44000
X12500Y-62000
X7500Y-54000
X54500Y-62000
X30500Y-56000
X33500Y-44000
X22500Y-49000
X58500Y-57000
X30500Y-43000
X9500Y-47000
X33500Y-49000
X55500Y-48000
X7500Y-55000
X33500Y-61000
X41500Y-54000
X58500Y-51000
X62500Y-58000
X26500Y-58000
X15500Y-44000
X25500Y-43000
X10500Y-57000
X19500Y-62000
X62500Y-61000
X24500Y-43000
X55500Y-55000
X37500Y-62000
X21500Y-54000
X19500Y-54000
X22500Y-51000
X24500Y-56000
X15500Y-61000
X21500Y-47000
X22500Y-50000
X9500Y-49000
X8500Y-49000
X61500Y-44000
X42500Y-44000
X50500Y-43000
X46500Y-54000
X61500Y-49000
X49500Y-51000
X36500Y-49000
X14500Y-55000
X13500Y-62000
X63500Y-43000
X47500Y-51000
X13500Y-58000
X14500Y-51000
X21500Y-49000
X38500Y-47000
X30500Y-55000
X47500Y-56000
X27500Y-55000
X16500Y-49000
X6500Y-62000
X47500Y-50000
X12500Y-43000
X35500Y-49000
X34500Y-57000
X35500Y-50000
X37500Y-43000
X42500Y-43000
X23500Y-58000
X44500Y-57000
X31500Y-54000
X57500Y-61000
X38500Y-61000
X64500Y-62000
X26500Y-43000
X9500Y-58000
X29500Y-48000
X35500Y-57000
X24500Y-57000
X60500Y-49000
X48500Y-47000
X49500Y-44000
X64500Y-51000
X26500Y-54000
X57500Y-50000
X41500Y-55000
X30500Y-50000
X57500Y-49000
X8500Y-58000
X46500Y-49000
X57500Y-62000
X48500Y-55000
X8500Y-55000
X48500Y-62000
X17500Y-57000
X20500Y-49000
X30500Y-54000
X24500Y-50000
X35500Y-56000
X8500Y-43000
X63500Y-61000
X48500Y-49000
X26500Y-55000
X24500Y-47000
X58500Y-55000
X63500Y-48000
X54500Y-54000
X46500Y-55000
X19500Y-61000
X8500Y-44000
X34500Y-43000
X39500Y-44000
X30500Y-49000
X26500Y-44000
X61500Y-62000
X54500Y-43000
X62500Y-50000
X44500Y-43000
X52500Y-56000
X6500Y-54000
X34500Y-54000
X48500Y-48000
X52500Y-57000
X50500Y-44000
X23500Y-51000
X9500Y-51000
X50500Y-50000
X38500Y-54000
X6500Y-48000
X36500Y-43000
X34500Y-55000
X56500Y-49000
X8500Y-62000
X53500Y-54000
X40500Y-61000
X51500Y-47000
X52500Y-47000
X37500Y-57000
X21500Y-43000
X7500Y-51000
X22500Y-56000
X59500Y-54000
X26500Y-56000
X53500Y-58000
X16500Y-56000
X37500Y-58000
X32500Y-44000
X56500Y-54000
X11500Y-57000
X50500Y-49000
X37500Y-54000
X18500Y-61000
X12500Y-44000
X11500Y-55000
X43500Y-58000
X44500Y-44000
X51500Y-51000
X62500Y-62000
X12500Y-57000
X42500Y-55000
X49500Y-57000
X57500Y-48000
X19500Y-55000
X9500Y-56000
X27500Y-54000
X28500Y-62000
X50500Y-47000
X46500Y-48000
X64500Y-47000
X7500Y-47000
X60500Y-57000
X32500Y-54000
X45500Y-56000
X48500Y-54000
X21500Y-50000
X18500Y-49000
X9500Y-44000
X27500Y-51000
X28500Y-57000
X20500Y-54000
X63500Y-49000
X6500Y-51000
X13500Y-48000
X56500Y-61000
X64500Y-50000
X12500Y-47000
X6500Y-43000
X41500Y-50000
X54500Y-44000
X62500Y-55000
X26500Y-57000
X12500Y-58000
X62500Y-51000
X38500Y-43000
X15500Y-50000
X33500Y-58000
X28500Y-56000
X44500Y-56000
X8500Y-57000
X49500Y-58000
X14500Y-56000
X36500Y-62000
X34500Y-62000
X13500Y-56000
X20500Y-58000
X32500Y-51000
X52500Y-43000
X57500Y-55000
X10500Y-51000
X44500Y-48000
X39500Y-51000
X61500Y-51000
X9500Y-50000
X15500Y-56000
X28500Y-55000
X44500Y-50000
X22500Y-61000
X10500Y-54000
X12500Y-49000
X24500Y-51000
X58500Y-62000
X58500Y-54000
X28500Y-50000
X30500Y-58000
X9500Y-55000
X7500Y-57000
X59500Y-47000
X63500Y-62000
X38500Y-49000
X49500Y-50000
X42500Y-47000
X55500Y-43000
X45500Y-44000
X50500Y-61000
X48500Y-43000
X43500Y-55000
X33500Y-62000
X50500Y-55000
X20500Y-57000
X64500Y-43000
X46500Y-62000
X56500Y-55000
X61500Y-47000
X36500Y-56000
X37500Y-47000
X17500Y-47000
X8500Y-48000
X21500Y-62000
X50500Y-56000
X52500Y-49000
X24500Y-55000
X23500Y-57000
X8500Y-50000
X25500Y-54000
X22500Y-62000
X6500Y-55000
X27500Y-61000
X19500Y-48000
X6500Y-50000
X31500Y-58000
X55500Y-47000
X54500Y-61000
X53500Y-51000
X61500Y-55000
X49500Y-56000
X57500Y-58000
X32500Y-62000
X25500Y-44000
X16500Y-54000
X20500Y-55000
X61500Y-61000
X9500Y-62000
X12500Y-51000
X46500Y-57000
X64500Y-44000
X40500Y-54000
X63500Y-58000
X62500Y-48000
X48500Y-51000
X47500Y-49000
X15500Y-62000
X8500Y-51000
X27500Y-57000
X60500Y-62000
X52500Y-51000
X17500Y-55000
X21500Y-48000
X32500Y-61000
X29500Y-54000
X53500Y-47000
X59500Y-56000
X24500Y-44000
X18500Y-44000
X47500Y-54000
X45500Y-62000
X62500Y-49000
X34500Y-51000
X6500Y-58000
X30500Y-48000
X33500Y-56000
X45500Y-61000
X21500Y-58000
X35500Y-54000
X36500Y-51000
X61500Y-50000
X30500Y-61000
X13500Y-43000
X31500Y-51000
X62500Y-57000
X22500Y-44000
X38500Y-44000
X14500Y-62000
X9500Y-48000
X44500Y-54000
X44500Y-49000
X12500Y-56000
X42500Y-49000
X33500Y-51000
X60500Y-58000
X38500Y-51000
X27500Y-62000
X6500Y-47000
X25500Y-56000
X42500Y-50000
X52500Y-62000
X46500Y-50000
X42500Y-61000
X45500Y-49000
X57500Y-54000
X32500Y-55000
X7500Y-62000
X58500Y-61000
X35500Y-48000
X51500Y-58000
X56500Y-57000
X14500Y-49000
X25500Y-51000
X54500Y-48000
X30500Y-47000
X42500Y-62000
X29500Y-49000
X47500Y-58000
X50500Y-51000
X51500Y-49000
X52500Y-50000
X19500Y-47000
X22500Y-54000
X57500Y-44000
X44500Y-51000
X43500Y-48000
X20500Y-50000
X49500Y-43000
X43500Y-57000
X29500Y-50000
X45500Y-55000
X36500Y-47000
X34500Y-47000
X42500Y-51000
X28500Y-49000
X47500Y-55000
X9500Y-57000
X20500Y-61000
X40500Y-57000
X19500Y-43000
X50500Y-48000
X16500Y-50000
X29500Y-55000
X39500Y-50000
X41500Y-57000
X33500Y-57000
X48500Y-44000
X58500Y-47000
X59500Y-50000
X32500Y-49000
X56500Y-50000
X17500Y-51000
X52500Y-58000
X55500Y-44000
X37500Y-48000
X56500Y-44000
X30500Y-44000
X14500Y-43000
X10500Y-48000
X31500Y-47000
X64500Y-61000
X53500Y-56000
X55500Y-56000
X26500Y-47000
X15500Y-57000
X25500Y-62000
X27500Y-50000
X11500Y-54000
X60500Y-50000
X28500Y-47000
X31500Y-61000
X41500Y-49000
X51500Y-55000
X62500Y-43000
X7500Y-50000
X18500Y-48000
X16500Y-47000
X34500Y-48000
X11500Y-50000
X64500Y-58000
X40500Y-49000
X20500Y-47000
X13500Y-51000
X29500Y-47000
X55500Y-62000
X34500Y-56000
X40500Y-58000
X42500Y-56000
X6500Y-44000
X27500Y-49000
X31500Y-62000
X24500Y-54000
X17500Y-48000
X61500Y-56000
X10500Y-58000
X14500Y-48000
X51500Y-62000
X59500Y-49000
X25500Y-55000
X45500Y-58000
X63500Y-50000
X41500Y-51000
X43500Y-56000
X39500Y-58000
X10500Y-43000
X23500Y-50000
X40500Y-48000
X15500Y-43000
X61500Y-58000
X64500Y-56000
X38500Y-57000
X34500Y-58000
X12500Y-61000
X25500Y-47000
X55500Y-61000
X25500Y-50000
X38500Y-55000
X6500Y-49000
X55500Y-50000
X8500Y-54000
X8500Y-56000
X57500Y-57000
X33500Y-47000
X61500Y-48000
X46500Y-47000
X14500Y-54000
X41500Y-48000
X28500Y-61000
X40500Y-44000
X58500Y-43000
X39500Y-43000
X50500Y-62000
X12500Y-55000
X60500Y-43000
X30500Y-57000
X24500Y-49000
X60500Y-47000
X31500Y-43000
X7500Y-61000
X40500Y-50000
X43500Y-44000
X61500Y-57000
X28500Y-43000
X8500Y-47000
X45500Y-47000
X43500Y-47000
X40500Y-47000
X7500Y-56000
X63500Y-54000
X57500Y-56000
X10500Y-49000
X28500Y-51000
X7500Y-44000
X48500Y-57000
X55500Y-54000
X29500Y-51000
X23500Y-47000
X13500Y-54000
X60500Y-44000
X18500Y-51000
X29500Y-56000
X63500Y-44000
X63500Y-47000
X10500Y-55000
X19500Y-51000
X49500Y-61000
X42500Y-54000
X27500Y-58000
X40500Y-56000
X46500Y-56000
X20500Y-51000
X59500Y-51000
X60500Y-51000
X22500Y-48000
X21500Y-56000
X26500Y-50000
X19500Y-44000
X31500Y-55000
X39500Y-49000
X14500Y-44000
X51500Y-48000
X37500Y-44000
X28500Y-44000
X53500Y-48000
X31500Y-57000
X45500Y-50000
X59500Y-58000
X27500Y-43000
X25500Y-57000
X11500Y-58000
X38500Y-58000
X18500Y-54000
X42500Y-48000
X46500Y-44000
X56500Y-62000
X50500Y-58000
X44500Y-61000
X36500Y-57000
X62500Y-56000
X55500Y-57000
X22500Y-58000
X62500Y-47000
X24500Y-61000
X31500Y-44000
X54500Y-55000
X54500Y-47000
X35500Y-58000
X15500Y-54000
X39500Y-54000
X44500Y-47000
X20500Y-62000
X48500Y-58000
X12500Y-50000
X56500Y-51000
X34500Y-50000
X51500Y-57000
X39500Y-62000
X11500Y-51000
X26500Y-62000
X51500Y-61000
X58500Y-49000
X54500Y-49000
X43500Y-43000
X23500Y-48000
X16500Y-51000
X31500Y-50000
X14500Y-47000
X11500Y-47000
X41500Y-47000
X10500Y-62000
X51500Y-50000
X6500Y-57000
X36500Y-48000
X63500Y-51000
T5
X25500Y-37500
X25500Y-38500
X6500Y-40000
X7500Y-40000
X8500Y-40000
X9500Y-40000
X10500Y-40000
X11500Y-40000
X12500Y-40000
X13500Y-40000
X27000Y-38500
X27000Y-39500
X28000Y-38500
X28000Y-39500
X29000Y-38500
X29000Y-39500
X30000Y-38500
X30000Y-39500
X31000Y-38500
X31000Y-39500
X32000Y-38500
X32000Y-39500
X33000Y-38500
X33000Y-39500
X34000Y-38500
X34000Y-39500
X35000Y-38500
X35000Y-39500
X36000Y-38500
X36000Y-39500
X37000Y-38500
X37000Y-39500
X38000Y-38500
X38000Y-39500
X50000Y-40000
X51000Y-40000
X52000Y-40000
X53000Y-40000
X54000Y-40000
X55000Y-40000
X56000Y-40000
X57000Y-40000
X58000Y-40000
X59000Y-40000
X60000Y-40000
X61000Y-40000
X62000Y-40000
X63000Y-40000
X64000Y-40000
X65000Y-40000
T6
X15500Y-13500
X15500Y-16500
X18500Y-13500
X18500Y-16500
X20000Y-13500
X20000Y-16500
X17000Y-13500
X17000Y-16500
X38500Y-14000
X38500Y-15772
X41059Y-14000
X41059Y-15772
T7
X31000Y-14000
X31000Y-15000
X31000Y-16000
T5
G00X7150Y-14925
M15
G01X7150Y-15713
M16
G05
G00X9394Y-14138
M15
G01X8606Y-14138
M16
G05
G00X9394Y-16500
M15
G01X8606Y-16500
M16
G05
G00X12902Y-13063
M15
G01X13098Y-13063
M16
G05
G00X12902Y-15031
M15
G01X13098Y-15031
M16
G05
G00X12902Y-17000
M15
G01X13098Y-17000
M16
G05
T0
M30
